<svg width="97.000000" height="67.000000" viewBox="0 0 97 67" fill="none" xmlns="http://www.w3.org/2000/svg" xmlns:xlink="http://www.w3.org/1999/xlink">
	<desc>
			Created with Pixso.
	</desc>
	<defs>
		<clipPath id="clip0_2275">
			<rect id="logo 1" rx="0.000000" width="96.000000" height="66.000000" transform="translate(0.500000 0.500000)" fill="white" fill-opacity="0"/>
		</clipPath>
	</defs>
	<rect id="logo 1" rx="0.000000" width="96.000000" height="66.000000" transform="translate(0.500000 0.500000)" fill="#FFFFFF" fill-opacity="0"/>
	<g clip-path="url(#clip0_2275)">
		<path id="Vector" d="M2.23 35.53L2.23 15.51L7.66 15.51L7.66 19.01L7.87 19.01C8.24 17.76 8.86 16.83 9.73 16.19C10.6 15.55 11.6 15.23 12.73 15.23C13.01 15.23 13.31 15.24 13.63 15.28C13.96 15.31 14.24 15.36 14.49 15.42L14.49 20.35C14.23 20.27 13.86 20.2 13.4 20.14C12.93 20.08 12.51 20.05 12.12 20.05C11.3 20.05 10.56 20.23 9.91 20.58C9.27 20.93 8.76 21.42 8.39 22.04C8.02 22.67 7.83 23.39 7.83 24.21L7.83 35.53L2.23 35.53ZM17.39 35.53L17.39 15.51L22.99 15.51L22.99 35.53L17.39 35.53ZM20.2 12.93C19.37 12.93 18.65 12.66 18.06 12.11C17.47 11.56 17.18 10.89 17.18 10.12C17.18 9.35 17.47 8.7 18.06 8.15C18.65 7.59 19.37 7.32 20.2 7.32C21.03 7.32 21.74 7.59 22.33 8.15C22.93 8.7 23.23 9.35 23.23 10.12C23.23 10.89 22.93 11.56 22.33 12.11C21.74 12.66 21.03 12.93 20.2 12.93ZM44.29 21.22L39.16 21.54C39.07 21.1 38.88 20.71 38.59 20.36C38.3 20.01 37.92 19.72 37.45 19.52C36.98 19.3 36.42 19.19 35.78 19.19C34.91 19.19 34.18 19.37 33.58 19.74C32.98 20.09 32.69 20.57 32.69 21.17C32.69 21.65 32.88 22.05 33.26 22.38C33.65 22.71 34.31 22.98 35.25 23.18L38.91 23.91C40.87 24.31 42.33 24.95 43.3 25.84C44.26 26.72 44.75 27.89 44.75 29.33C44.75 30.64 44.36 31.79 43.58 32.78C42.8 33.77 41.74 34.55 40.39 35.1C39.05 35.65 37.5 35.93 35.75 35.93C33.08 35.93 30.94 35.37 29.36 34.27C27.78 33.16 26.85 31.65 26.58 29.73L32.09 29.45C32.26 30.26 32.66 30.87 33.3 31.3C33.94 31.72 34.76 31.92 35.76 31.92C36.74 31.92 37.53 31.74 38.13 31.36C38.74 30.98 39.04 30.49 39.05 29.89C39.04 29.39 38.83 28.97 38.41 28.65C37.99 28.32 37.34 28.07 36.46 27.9L32.96 27.21C30.99 26.81 29.52 26.14 28.56 25.17C27.6 24.21 27.12 22.98 27.12 21.48C27.12 20.2 27.47 19.09 28.17 18.16C28.88 17.23 29.88 16.51 31.16 16.01C32.45 15.51 33.96 15.25 35.68 15.25C38.24 15.25 40.24 15.79 41.71 16.86C43.18 17.93 44.04 19.38 44.29 21.22ZM57.48 35.93C55.4 35.93 53.61 35.51 52.11 34.67C50.62 33.83 49.47 32.64 48.67 31.1C47.86 29.56 47.46 27.73 47.46 25.62C47.46 23.56 47.86 21.75 48.67 20.19C49.47 18.64 50.61 17.43 52.07 16.56C53.55 15.69 55.27 15.25 57.26 15.25C58.59 15.25 59.83 15.47 60.98 15.89C62.14 16.31 63.14 16.94 64 17.78C64.87 18.62 65.55 19.68 66.03 20.96C66.51 22.23 66.75 23.72 66.75 25.42L66.75 26.94L49.69 26.94L49.69 23.5L61.48 23.5C61.48 22.7 61.3 22 60.95 21.38C60.6 20.76 60.11 20.28 59.49 19.93C58.88 19.58 58.16 19.4 57.35 19.4C56.5 19.4 55.74 19.59 55.09 19.98C54.44 20.37 53.93 20.88 53.56 21.54C53.19 22.18 53 22.9 53 23.69L53 26.96C53 27.95 53.18 28.8 53.55 29.53C53.92 30.25 54.46 30.8 55.14 31.19C55.82 31.59 56.63 31.78 57.57 31.78C58.19 31.78 58.76 31.69 59.28 31.52C59.8 31.35 60.24 31.09 60.61 30.74C60.98 30.39 61.26 29.96 61.45 29.46L66.63 29.8C66.37 31.03 65.83 32.11 65.02 33.03C64.21 33.94 63.17 34.66 61.89 35.17C60.61 35.67 59.15 35.93 57.48 35.93Z" fill="#F0E714" fill-opacity="1.000000" fill-rule="nonzero"/>
		<path id="Vector" d="M90.6 7.81C91.84 7.81 92.85 6.81 92.85 5.58C92.85 4.34 91.84 3.35 90.6 3.35C89.35 3.35 88.34 4.34 88.34 5.58C88.34 6.36 88.76 7.06 89.37 7.45C83.08 18.68 77.83 19.59 68.66 8.18C68.57 8.08 68.42 8.05 68.31 8.11C68.24 8.16 68.2 8.23 68.19 8.31C68.18 8.37 68.2 8.44 68.24 8.49C77.92 21.96 78.3 28.89 76.44 40.69C76.42 40.81 76.52 40.92 76.65 40.92C76.74 40.92 76.83 40.85 76.85 40.76C79.89 27.08 84.61 23.53 96.42 22.12C96.52 22.11 96.6 22.03 96.6 21.92C96.6 21.8 96.48 21.7 96.36 21.72C83.8 23.96 83.52 19.66 89.79 7.66C90.04 7.76 90.31 7.81 90.6 7.81Z" fill="#FFFFFF" fill-opacity="1.000000" fill-rule="evenodd"/>
		<path id="Vector" d="M6.66 62C5.52 62 4.53 61.74 3.71 61.2C2.88 60.67 2.25 59.93 1.8 58.99C1.36 58.05 1.14 56.98 1.14 55.78C1.14 54.55 1.36 53.47 1.82 52.53C2.28 51.59 2.92 50.85 3.74 50.32C4.56 49.79 5.53 49.52 6.63 49.52C7.48 49.52 8.26 49.68 8.94 49.99C9.63 50.3 10.19 50.74 10.63 51.31C11.07 51.88 11.34 52.54 11.45 53.29L9.58 53.29C9.44 52.74 9.12 52.25 8.63 51.83C8.14 51.4 7.48 51.18 6.66 51.18C5.93 51.18 5.29 51.37 4.74 51.75C4.19 52.12 3.77 52.65 3.46 53.33C3.16 54.01 3.01 54.8 3.01 55.71C3.01 56.65 3.16 57.46 3.45 58.15C3.76 58.84 4.18 59.38 4.72 59.76C5.27 60.15 5.92 60.34 6.66 60.34C7.15 60.34 7.59 60.25 7.98 60.08C8.38 59.92 8.72 59.68 8.99 59.36C9.27 59.05 9.46 58.67 9.58 58.23L11.45 58.23C11.34 58.94 11.08 59.58 10.66 60.16C10.25 60.72 9.7 61.17 9.02 61.51C8.35 61.84 7.56 62 6.66 62ZM14.19 61.75L14.19 49.68L16 49.68L16 51.5L16.12 51.5C16.35 50.9 16.75 50.42 17.33 50.05C17.91 49.67 18.57 49.49 19.3 49.49C19.43 49.49 19.61 49.49 19.81 49.49C20.02 49.5 20.17 49.51 20.28 49.52L20.28 51.41C20.22 51.39 20.07 51.37 19.84 51.33C19.62 51.3 19.39 51.28 19.14 51.28C18.54 51.28 18.02 51.4 17.55 51.65C17.09 51.89 16.73 52.23 16.46 52.66C16.19 53.08 16.06 53.56 16.06 54.11L16.06 61.75L14.19 61.75ZM27.24 62C26.06 62 25.05 61.75 24.2 61.23C23.35 60.71 22.7 59.99 22.24 59.06C21.78 58.13 21.56 57.04 21.56 55.81C21.56 54.57 21.78 53.48 22.24 52.54C22.7 51.59 23.34 50.85 24.16 50.32C24.98 49.79 25.95 49.52 27.05 49.52C27.68 49.52 28.31 49.62 28.93 49.83C29.55 50.04 30.11 50.38 30.62 50.85C31.12 51.32 31.53 51.94 31.83 52.71C32.13 53.48 32.28 54.43 32.28 55.56L32.28 56.34L22.89 56.34L22.89 54.74L30.38 54.74C30.38 54.06 30.24 53.45 29.97 52.91C29.7 52.38 29.31 51.96 28.81 51.65C28.31 51.34 27.72 51.18 27.05 51.18C26.3 51.18 25.66 51.37 25.11 51.74C24.57 52.1 24.16 52.57 23.87 53.15C23.57 53.73 23.43 54.36 23.43 55.02L23.43 56.09C23.43 57 23.59 57.78 23.91 58.41C24.23 59.04 24.67 59.52 25.25 59.85C25.82 60.17 26.48 60.34 27.24 60.34C27.73 60.34 28.17 60.27 28.57 60.13C28.97 59.99 29.32 59.78 29.61 59.5C29.9 59.22 30.12 58.87 30.28 58.45L32.09 58.95C31.9 59.56 31.58 60.1 31.13 60.56C30.68 61.01 30.13 61.37 29.47 61.63C28.81 61.88 28.06 62 27.24 62ZM38.72 62.03C37.94 62.03 37.24 61.89 36.61 61.6C35.98 61.31 35.48 60.89 35.11 60.34C34.74 59.78 34.56 59.11 34.56 58.32C34.56 57.63 34.7 57.07 34.97 56.64C35.25 56.21 35.61 55.87 36.07 55.62C36.53 55.37 37.04 55.19 37.6 55.07C38.16 54.94 38.72 54.84 39.29 54.77C40.03 54.68 40.63 54.61 41.09 54.56C41.55 54.51 41.89 54.42 42.1 54.3C42.32 54.18 42.43 53.97 42.43 53.67L42.43 53.61C42.43 52.83 42.21 52.23 41.79 51.8C41.36 51.37 40.72 51.15 39.86 51.15C38.96 51.15 38.26 51.35 37.76 51.74C37.25 52.12 36.89 52.54 36.69 52.98L34.91 52.35C35.23 51.61 35.65 51.04 36.18 50.63C36.71 50.22 37.29 49.93 37.92 49.77C38.56 49.6 39.18 49.52 39.8 49.52C40.19 49.52 40.64 49.57 41.14 49.66C41.66 49.75 42.15 49.93 42.63 50.22C43.11 50.5 43.51 50.93 43.83 51.5C44.14 52.07 44.3 52.84 44.3 53.8L44.3 61.75L42.43 61.75L42.43 60.12L42.33 60.12C42.21 60.38 42 60.66 41.7 60.96C41.4 61.26 41.01 61.51 40.52 61.72C40.03 61.93 39.42 62.03 38.72 62.03ZM39 60.37C39.74 60.37 40.37 60.22 40.87 59.94C41.39 59.65 41.77 59.27 42.03 58.82C42.3 58.36 42.43 57.88 42.43 57.38L42.43 55.68C42.35 55.78 42.17 55.86 41.91 55.94C41.64 56.01 41.33 56.08 40.98 56.14C40.64 56.19 40.31 56.24 39.98 56.28C39.65 56.32 39.39 56.35 39.19 56.37C38.71 56.44 38.25 56.54 37.83 56.68C37.41 56.82 37.07 57.02 36.81 57.3C36.56 57.57 36.43 57.95 36.43 58.42C36.43 59.06 36.67 59.55 37.15 59.88C37.64 60.21 38.26 60.37 39 60.37ZM53.02 49.68L53.02 51.25L46.7 51.25L46.7 49.68L53.02 49.68ZM48.54 46.78L50.42 46.78L50.42 58.29C50.42 58.82 50.49 59.21 50.65 59.47C50.8 59.73 51.01 59.9 51.25 59.99C51.5 60.07 51.76 60.12 52.03 60.12C52.24 60.12 52.41 60.11 52.54 60.08C52.67 60.06 52.78 60.04 52.86 60.02L53.24 61.69C53.11 61.74 52.94 61.78 52.71 61.83C52.48 61.88 52.19 61.91 51.84 61.91C51.31 61.91 50.8 61.8 50.29 61.57C49.79 61.35 49.37 61 49.04 60.54C48.71 60.08 48.54 59.5 48.54 58.8L48.54 46.78ZM55.83 61.75L55.83 49.68L57.71 49.68L57.71 61.75L55.83 61.75ZM56.79 47.66C56.42 47.66 56.11 47.54 55.84 47.29C55.58 47.05 55.45 46.75 55.45 46.4C55.45 46.06 55.58 45.76 55.84 45.52C56.11 45.27 56.42 45.15 56.79 45.15C57.15 45.15 57.46 45.27 57.72 45.52C57.99 45.76 58.12 46.06 58.12 46.4C58.12 46.75 57.99 47.05 57.72 47.29C57.46 47.54 57.15 47.66 56.79 47.66ZM71.1 49.68L66.59 61.75L64.69 61.75L60.18 49.68L62.21 49.68L65.58 59.3L65.7 59.3L69.07 49.68L71.1 49.68ZM78.24 62C77.07 62 76.06 61.75 75.2 61.23C74.36 60.71 73.7 59.99 73.24 59.06C72.79 58.13 72.56 57.04 72.56 55.81C72.56 54.57 72.79 53.48 73.24 52.54C73.7 51.59 74.34 50.85 75.16 50.32C75.99 49.79 76.95 49.52 78.05 49.52C78.69 49.52 79.31 49.62 79.93 49.83C80.55 50.04 81.11 50.38 81.62 50.85C82.13 51.32 82.53 51.94 82.84 52.71C83.14 53.48 83.29 54.43 83.29 55.56L83.29 56.34L73.89 56.34L73.89 54.74L81.38 54.74C81.38 54.06 81.25 53.45 80.97 52.91C80.7 52.38 80.32 51.96 79.81 51.65C79.32 51.34 78.73 51.18 78.05 51.18C77.31 51.18 76.66 51.37 76.12 51.74C75.58 52.1 75.16 52.57 74.87 53.15C74.58 53.73 74.43 54.36 74.43 55.02L74.43 56.09C74.43 57 74.59 57.78 74.91 58.41C75.23 59.04 75.68 59.52 76.25 59.85C76.82 60.17 77.49 60.34 78.24 60.34C78.73 60.34 79.18 60.27 79.58 60.13C79.98 59.99 80.32 59.78 80.61 59.5C80.91 59.22 81.13 58.87 81.29 58.45L83.1 58.95C82.91 59.56 82.59 60.1 82.14 60.56C81.69 61.01 81.13 61.37 80.47 61.63C79.81 61.88 79.07 62 78.24 62Z" fill="#FFFFFF" fill-opacity="1.000000" fill-rule="nonzero"/>
	</g>
</svg>
