<?xml version="1.0" encoding="UTF-8" standalone="no"?>
<svg
   viewBox="0 0 9.5 12"
   width="9.5"
   height="12"
   fill="none"
   version="1.1"
   id="svg1"
   sodipodi:docname="location.svg"
   inkscape:version="1.4.2 (f4327f4, 2025-05-13)"
   xmlns:inkscape="http://www.inkscape.org/namespaces/inkscape"
   xmlns:sodipodi="http://sodipodi.sourceforge.net/DTD/sodipodi-0.dtd"
   xmlns="http://www.w3.org/2000/svg"
   xmlns:svg="http://www.w3.org/2000/svg">
  <defs
     id="defs1" />
  <sodipodi:namedview
     id="namedview1"
     pagecolor="#ffffff"
     bordercolor="#000000"
     borderopacity="0.25"
     inkscape:showpageshadow="2"
     inkscape:pageopacity="0.0"
     inkscape:pagecheckerboard="0"
     inkscape:deskcolor="#d1d1d1"
     inkscape:zoom="24.84375"
     inkscape:cx="7.3056604"
     inkscape:cy="11.371069"
     inkscape:window-width="1920"
     inkscape:window-height="991"
     inkscape:window-x="-9"
     inkscape:window-y="-9"
     inkscape:window-maximized="1"
     inkscape:current-layer="svg1" />
  <path
     id="Vector"
     d="M 4.7499737,12 C 3.8929027,11.28194 3.0984703,10.494594 2.3749922,9.6464593 1.2892815,8.3727077 5.8970763e-7,6.4757376 5.8970763e-7,4.6680901 -4.6762159e-4,3.7449201 0.277884,2.8423461 0.79982763,2.0746159 1.3217713,1.3068856 2.0638455,0.70850229 2.9321332,0.35520119 3.800431,0.00190008 4.7559078,-0.09045191 5.677653,0.08985293 c 0.9217452,0.18029484 1.7683017,0.6251381 2.4325511,1.27822067 0.4422561,0.4324857 0.7928038,0.9468354 1.031388,1.5132849 0.2384824,0.5664496 0.3603191,1.1737412 0.3583852,1.7867316 0,1.8076475 -1.2893114,3.7046176 -2.3750527,4.9783692 C 6.4014669,10.494594 5.6070447,11.28184 4.7499737,12 Z m 0,-9.33152 c -0.5398985,0 -1.0576893,0.210679 -1.4394546,0.5856758 -0.3817754,0.3749969 -0.5962467,0.8836077 -0.5962467,1.4139343 0,0.5303366 0.2144713,1.0389474 0.5962467,1.4139443 0.3817653,0.3749969 0.8995561,0.5856658 1.4394546,0.5856658 0.5398985,0 1.0576893,-0.2106689 1.4394546,-0.5856658 C 6.5711935,5.7070375 6.785675,5.1984267 6.785675,4.6680901 6.785675,4.1377635 6.5711935,3.6291527 6.1894283,3.2541558 5.807663,2.879159 5.2898722,2.66848 4.7499737,2.66848 Z"
     fill="#101c26"
     fill-rule="nonzero"
     style="stroke-width:1.00879" />
</svg>
