<svg viewBox="0 0 28 19.8673" xmlns="http://www.w3.org/2000/svg" xmlns:xlink="http://www.w3.org/1999/xlink" width="28.000000" height="19.867310" fill="none" customFrame="#000000">
	<path id="inverted-commas (1) 1 (Traced)" d="M0 4.95964L0 9.91928L4.20924 9.91928C7.78306 9.91928 8.41849 9.94029 8.41849 10.0582C8.41849 10.1345 8.36535 10.5366 8.30041 10.9518C8.00806 12.8216 6.79875 14.6763 5.14304 15.794C3.84484 16.6704 2.56512 17.1402 0.984854 17.3204L0 17.4328L0 18.6357L0 19.8386L0.628653 19.8373C0.974358 19.8366 1.7001 19.7542 2.24129 19.6544C4.4325 19.25 6.23515 18.3852 7.82657 16.9749C9.35863 15.6171 10.2597 14.246 10.8546 12.3675C11.0828 11.6469 11.0922 11.4204 11.1262 5.81056L11.1614 0L5.58069 0L0 0L0 4.95964ZM16.837 4.95964L16.837 9.91928L21.0072 9.91928L25.1774 9.91928L25.1187 10.6812C25.0497 11.5755 24.5809 12.8733 24.0381 13.6721C22.6163 15.7645 20.2537 17.1019 17.5203 17.3616L16.837 17.4264L16.837 18.6469L16.837 19.8673L17.7936 19.8095C19.1407 19.728 20.3085 19.4334 21.7022 18.8234C24.6902 17.5158 26.7438 15.281 27.6398 12.3621L27.9269 11.4266L27.9635 5.71331L28 0L22.4185 0L16.837 0L16.837 4.95964ZM8.41849 4.91102L8.41849 7.39084L5.63055 7.39084L2.84261 7.39084L2.84261 4.91102L2.84261 2.4312L5.63055 2.4312L8.41849 2.4312L8.41849 4.91102ZM25.1461 4.91102L25.1461 7.39084L22.3582 7.39084L19.5703 7.39084L19.5703 4.91102L19.5703 2.4312L22.3582 2.4312L25.1461 2.4312L25.1461 4.91102Z" fill="rgb(243,120,37)" fill-rule="evenodd" transform="matrix(-1,0,0,-1,28,19.8671)" />
</svg>
