<?xml version="1.0" encoding="UTF-8" standalone="no"?>
<svg
   viewBox="0 0 26.5 26.5"
   width="26.5"
   height="26.5"
   fill="none"
   version="1.1"
   id="svg2"
   sodipodi:docname="recycle.svg"
   inkscape:version="1.4.2 (f4327f4, 2025-05-13)"
   xmlns:inkscape="http://www.inkscape.org/namespaces/inkscape"
   xmlns:sodipodi="http://sodipodi.sourceforge.net/DTD/sodipodi-0.dtd"
   xmlns="http://www.w3.org/2000/svg"
   xmlns:svg="http://www.w3.org/2000/svg">
  <defs
     id="defs2" />
  <sodipodi:namedview
     id="namedview2"
     pagecolor="#ffffff"
     bordercolor="#000000"
     borderopacity="0.25"
     inkscape:showpageshadow="2"
     inkscape:pageopacity="0.0"
     inkscape:pagecheckerboard="0"
     inkscape:deskcolor="#d1d1d1"
     inkscape:zoom="24.84375"
     inkscape:cx="16"
     inkscape:cy="16"
     inkscape:window-width="1920"
     inkscape:window-height="991"
     inkscape:window-x="-9"
     inkscape:window-y="-9"
     inkscape:window-maximized="1"
     inkscape:current-layer="svg2" />
  <path
     id="Vector"
     d="M 8.7782189,8.6124901 H 2.8156692 c -0.3514245,0 -0.6884494,-0.1396212 -0.93693,-0.3881568 C 1.6302487,7.975897 1.4906449,7.6389181 1.4906449,7.2874702 V 1.325 c 0,-0.35140812 0.1396038,-0.68842681 0.3880943,-0.93691275 C 2.1272198,0.1396013 2.4642447,0 2.8156692,0 3.1670837,0 3.5041086,0.1396013 3.7525892,0.38808725 4.0010797,0.63657319 4.1406835,0.97359188 4.1406835,1.325 v 4.6374702 h 4.6375354 c 0.3513947,0 0.6884792,0.1396013 0.93692,0.3880872 0.2485402,0.248486 0.3881641,0.5855047 0.3881641,0.9369128 0,0.3514479 -0.1396239,0.6884268 -0.3881641,0.9368631 -0.2484408,0.2485356 -0.5855253,0.3881568 -0.93692,0.3881568 z"
     fill="#f0e714"
     fill-rule="nonzero"
     style="stroke-width:0.993754" />
  <path
     id="path1"
     d="m 25.175015,14.57506 c -0.351395,0 -0.68838,-0.139622 -0.93692,-0.388058 C 23.989654,13.938467 23.85003,13.601488 23.85003,13.250099 23.851024,10.917482 23.08205,8.6497555 21.662558,6.7988159 20.242967,4.9478863 18.252162,3.6172319 15.999101,3.0133331 13.745942,2.4094441 11.356538,2.5660882 9.2015621,3.4589581 7.0465268,4.3518381 5.2464936,5.9310082 4.0807497,7.9514509 3.9046847,8.2555368 3.6150126,8.4773407 3.2754536,8.5678709 2.9358947,8.6585005 2.5742642,8.6104032 2.270113,8.434411 1.9659619,8.2583193 1.7442036,7.9686427 1.653632,7.62908 1.5630604,7.2895173 1.6110791,6.9279233 1.7871441,6.6237777 3.2449948,4.0986616 5.4954512,2.1252231 8.1894142,1.009635 10.883308,-0.1059531 13.870063,-0.30133331 16.686388,0.45380361 c 2.816325,0.75513689 5.304708,2.41857669 7.079073,4.73226349 1.774463,2.3137267 2.735631,5.1482849 2.734538,8.0640319 0,0.351389 -0.139524,0.688368 -0.388064,0.936903 -0.248441,0.248436 -0.585526,0.388058 -0.93692,0.388058 z M 23.68437,26.5 c -0.351395,0 -0.68838,-0.139621 -0.93692,-0.388057 -0.248441,-0.248536 -0.388065,-0.585515 -0.388065,-0.936903 V 20.53753 H 17.72179 c -0.351395,0 -0.68838,-0.139621 -0.93692,-0.388058 -0.248441,-0.248535 -0.388064,-0.585514 -0.388064,-0.936902 0,-0.351488 0.139623,-0.688467 0.388064,-0.936903 0.24854,-0.248536 0.585525,-0.388157 0.93692,-0.388157 h 5.96258 c 0.351394,0 0.688479,0.139621 0.93692,0.388157 0.24854,0.248436 0.388064,0.585415 0.388064,0.936903 v 5.96247 c 0,0.351388 -0.139524,0.688367 -0.388064,0.936903 C 24.372849,26.360379 24.035764,26.5 23.68437,26.5 Z"
     fill="#f0e714"
     fill-rule="nonzero"
     style="stroke-width:0.993754" />
  <path
     id="path2"
     d="M 13.250154,26.499901 C 9.7372998,26.495628 6.3695157,25.098323 3.8855348,22.614457 1.401554,20.130492 0.00421356,16.762789 0,13.249901 0,12.898512 0.13960386,12.561533 0.38809436,12.312998 0.63657493,12.064562 0.9735998,11.92494 1.3250243,11.92494 c 0.3514146,0 0.6884394,0.139622 0.93692,0.388058 0.2484905,0.248535 0.3880944,0.585514 0.3880944,0.936903 -0.00101,2.332617 0.7679206,4.600343 2.1874816,6.451293 1.419551,1.850949 3.4103272,3.181574 5.6634867,3.785473 2.25306,0.603899 4.642564,0.447285 6.797539,-0.445595 2.154976,-0.89288 3.954979,-2.47204 5.120763,-4.492523 0.08715,-0.150552 0.203125,-0.282522 0.341358,-0.388256 0.138133,-0.105834 0.295744,-0.183346 0.463888,-0.228164 0.168145,-0.04482 0.343445,-0.05615 0.515962,-0.03329 0.172518,0.02295 0.338774,0.0796 0.489429,0.16675 0.150555,0.08725 0.282527,0.203221 0.388362,0.341351 0.105737,0.13823 0.18325,0.295838 0.228069,0.46398 0.04492,0.168142 0.05615,0.343438 0.03329,0.515952 -0.02296,0.172515 -0.0796,0.338768 -0.166753,0.48932 -1.165387,2.009353 -2.836896,3.678248 -4.848074,4.840433 -2.011179,1.162086 -4.291865,1.776916 -6.614686,1.783276 z"
     fill="#f0e714"
     fill-rule="nonzero"
     style="stroke-width:0.993754" />
</svg>
