<?xml version="1.0" encoding="UTF-8" standalone="no"?>
<svg
   viewBox="0 0 25 25"
   width="25"
   height="25"
   fill="none"
   version="1.1"
   id="svg1"
   sodipodi:docname="team.svg"
   inkscape:version="1.4.2 (f4327f4, 2025-05-13)"
   xmlns:inkscape="http://www.inkscape.org/namespaces/inkscape"
   xmlns:sodipodi="http://sodipodi.sourceforge.net/DTD/sodipodi-0.dtd"
   xmlns="http://www.w3.org/2000/svg"
   xmlns:svg="http://www.w3.org/2000/svg">
  <defs
     id="defs1" />
  <sodipodi:namedview
     id="namedview1"
     pagecolor="#ffffff"
     bordercolor="#000000"
     borderopacity="0.25"
     inkscape:showpageshadow="2"
     inkscape:pageopacity="0.0"
     inkscape:pagecheckerboard="0"
     inkscape:deskcolor="#d1d1d1"
     inkscape:zoom="24.84375"
     inkscape:cx="16"
     inkscape:cy="16"
     inkscape:window-width="1920"
     inkscape:window-height="991"
     inkscape:window-x="-9"
     inkscape:window-y="-9"
     inkscape:window-maximized="1"
     inkscape:current-layer="svg1" />
  <rect
     id="ant-design:team-outlined"
     width="32"
     height="32"
     x="0"
     y="0"
     fill="#ffffff"
     fill-opacity="0" />
  <path
     id="Vector"
     d="m 22.256359,18.372094 c -0.7822,-0.782777 -1.6962,-1.421758 -2.7,-1.887444 1.4156,-1.146867 2.3187,-2.896815 2.3187,-4.859258 0,-3.4623979 -2.8875,-6.302935 -6.35,-6.2498165 -3.4094,0.053128 -6.1561998,2.8312166 -6.1561998,6.2498165 0,1.962443 0.9061998,3.712391 2.3186998,4.859258 -1.004,0.465386 -1.9179998,1.104367 -2.6999998,1.887444 -1.7062,1.70935 -2.67498,3.965484 -2.73748,6.371613 -8.4e-4,0.0334 0.00501,0.0666 0.0172,0.0976 0.01219,0.0311 0.03047,0.0594 0.05377,0.0833 0.0233,0.0239 0.05114,0.0428 0.08189,0.0558 0.03075,0.0129 0.06377,0.0196 0.09712,0.0196 h 1.75 c 0.1344,0 0.2469,-0.106297 0.25,-0.240593 0.0594,-1.812447 0.7938,-3.509297 2.0843998,-4.796759 0.6604,-0.663881 1.446,-1.190265 2.3112,-1.548555 0.8652,-0.358389 1.7929,-0.541484 2.7294,-0.538884 1.9031,0 3.6938,0.740578 5.0406,2.087439 1.2875,1.287462 2.0219,2.984312 2.0844,4.796759 0.0031,0.134296 0.1156,0.240593 0.25,0.240593 h 1.75 c 0.0334,0 0.0664,-0.0067 0.0972,-0.0196 0.0307,-0.013 0.0585,-0.0319 0.0818,-0.0558 0.0233,-0.0239 0.0416,-0.0522 0.0538,-0.0833 0.0122,-0.031 0.018,-0.0642 0.0172,-0.0976 -0.0625,-2.406129 -1.0312,-4.662263 -2.7437,-6.371613 z m -6.6313,-2.746819 c -1.0687,0 -2.075,-0.415588 -2.8281,-1.171866 -0.378,-0.374989 -0.6765,-0.822176 -0.8779,-1.315061 -0.2013,-0.492886 -0.3013,-1.02127 -0.294,-1.553555 0.0094,-1.02497 0.4188,-2.0155409 1.1344,-2.7499189 0.75,-0.768778 1.7531,-1.196865 2.825,-1.209365 1.0594,-0.0094 2.0875,0.403089 2.8437,1.143767 0.775,0.759278 1.2,1.7749479 1.2,2.8561159 0,1.068769 -0.4156,2.071839 -1.1718,2.828017 -0.3711,0.372789 -0.8123,0.668281 -1.2983,0.869475 -0.486,0.201194 -1.007,0.303891 -1.533,0.302391 z M 7.7969592,12.450368 c -0.0281,-0.271892 -0.0438,-0.546884 -0.0438,-0.824976 0,-0.496885 0.0469,-0.981171 0.1344,-1.453057 0.0219,-0.112497 -0.0375,-0.2280939 -0.1406,-0.2749919 -0.425,-0.190595 -0.8156,-0.453087 -1.1531,-0.784377 -0.39772,-0.385589 -0.71066,-0.849875 -0.91889,-1.36316 -0.20823,-0.513285 -0.30718,-1.064369 -0.29052,-1.6180028 0.02813,-1.0030906 0.43125,-1.9561926 1.13441,-2.6749216 0.7718,-0.7905968 1.8093,-1.2218341 2.9125,-1.2093345 0.9967998,0.00937 1.9592998,0.3937384 2.6874998,1.0749685 0.2468,0.2312432 0.4593,0.4874857 0.6375,0.7624776 0.0625,0.096867 0.1843,0.137496 0.2906,0.099997 0.55,-0.1906244 1.1312,-0.3249905 1.7281,-0.3874887 0.175,-0.018749 0.275,-0.2062438 0.1969,-0.3624892 C 13.956359,1.4256913 11.881359,0.038232 9.4813592,7.3309988e-4 6.0156992,-0.0523859 3.1281992,2.7881513 3.1281992,6.2474299 c 0,1.9624622 0.90313,3.7124112 2.31875,4.8592771 -0.99375,0.459287 -1.90937,1.093668 -2.70312,1.887345 -1.7125,1.70935 -2.68125001,3.965584 -2.743750010043,6.374813 -8.39999997e-4,0.0334 0.00501,0.0666 0.01720000004,0.0976 0.01219,0.0311 0.03048,0.0594 0.05377,0.0833 0.0233,0.0239 0.05114,0.0428 0.08189,0.0558 0.03075,0.0129 0.06377,0.0196 0.09714,0.0196 H 2.0031992 c 0.13438,0 0.24688,-0.106297 0.25,-0.240593 0.05938,-1.812447 0.79375,-3.509298 2.08438,-4.79676 0.91875,-0.918673 2.04375,-1.556254 3.27188,-1.865545 0.1219,-0.0313 0.2031,-0.146896 0.1875,-0.271892 z"
     fill="#f0e714"
     fill-rule="nonzero"
     style="stroke-width:0.999985" />
</svg>
